<?xml version="1.0" encoding="UTF-8"?><svg id="a" xmlns="http://www.w3.org/2000/svg" viewBox="0 0 44.39 42.35"><path d="M0,.18h8v42H0V.18Z" style="fill:#020202; fill-rule:evenodd;"/><path d="M43.27,13.35c-.33-1.57-1.32-5-4.8-8.3-3.2-3.04-6.9-4.46-8.77-5.05h-14.86v42.21c2.41.21,5.92.29,9.97-.5,6.99-1.35,11.51-4.48,13.52-6.08,1.72-1.98,4.5-5.73,5.6-10.96,1.05-4.97.1-9.05-.66-11.33ZM36.81,23.26c-.56,3.19-1.98,5.49-2.85,6.7-1.03.98-3.33,2.89-6.9,3.71-2.06.48-3.86.43-5.08.3V8.18h7.58c.95.37,2.84,1.23,4.47,3.09,1.77,2.02,2.28,4.12,2.45,5.07.39,1.39.87,3.88.34,6.92Z" style="fill:#020202; fill-rule:evenodd;"/></svg>