<?xml version="1.0" encoding="UTF-8"?><svg id="a" xmlns="http://www.w3.org/2000/svg" viewBox="0 0 24 24"><path d="M6.87.78h9.19c0,.16-2.96,4.32-4.08,6.26L6.87.78Z" style="fill:#0f0f0f; fill-rule:evenodd;"/><path d="M12,7.93c-4.31,0-7.81,3.49-7.81,7.81s3.49,7.81,7.81,7.81,7.81-3.49,7.81-7.81-3.49-7.81-7.81-7.81h0ZM12,22.34c-3.65,0-6.6-2.95-6.6-6.6s2.95-6.6,6.6-6.6,6.6,2.95,6.6,6.6-2.95,6.6-6.6,6.6Z" style="fill:#0f0f0f; fill-rule:evenodd;"/><path d="M0,0v24h24V0H0ZM23.55,23.64H.35V.44h23.2s0,23.2,0,23.2Z" style="fill:none;"/></svg>