<svg width="50" height="50" viewBox="0 0 50 50" fill="none" xmlns="http://www.w3.org/2000/svg">
<path d="M12.5 18.75V4.16666H37.5V18.75M12.5 37.5H8.33332C7.22825 37.5 6.16845 37.061 5.38704 36.2796C4.60564 35.4982 4.16666 34.4384 4.16666 33.3333V22.9167C4.16666 21.8116 4.60564 20.7518 5.38704 19.9704C6.16845 19.189 7.22825 18.75 8.33332 18.75H41.6667C42.7717 18.75 43.8315 19.189 44.6129 19.9704C45.3943 20.7518 45.8333 21.8116 45.8333 22.9167V33.3333C45.8333 34.4384 45.3943 35.4982 44.6129 36.2796C43.8315 37.061 42.7717 37.5 41.6667 37.5H37.5M12.5 29.1667H37.5V45.8333H12.5V29.1667Z" stroke="#1E1E1E" stroke-width="4" stroke-linecap="round" stroke-linejoin="round"/>
</svg>
