<?xml version="1.0" encoding="UTF-8"?><svg id="a" xmlns="http://www.w3.org/2000/svg" viewBox="0 0 24 23.98"><path d="M23.94,15.68c-.11-.32-1.37-.2-1.85-.2h-5.85v-6.98h7.45c.1-.03.17-.11.24-.16.03-.14.05-.2.04-.36-.05-.05-.12-.14-.16-.2-.26-.06-.65-.04-.98-.04h-6.6V.76c0-.18.03-.45-.04-.56-.06-.19-.26-.21-.47-.2-.05.05-.12.1-.18.13-.17.66-.07,1.77-.07,2.56v5.05h-6.98V1.83c0-.4.09-1.46-.07-1.69C8.35,0,8.18,0,8,0c-.08.08-.21.13-.24.24v7.49H.77c-.18,0-.45-.03-.56.04-.17.05-.29.35-.16.51.11.32,1.37.2,1.85.2h5.85v6.98H.3c-.1.03-.17.11-.24.16-.03.14-.05.2-.04.36.05.05.12.14.16.2.26.06.65.04.98.04h6.6v6.98c0,.18-.03.45.04.56.06.19.26.21.47.2.05-.05.12-.1.18-.13.17-.66.07-1.77.07-2.56v-5.05h6.98v5.92c0,.4-.09,1.46.07,1.69.09.14.26.14.44.13.08-.08.21-.13.24-.24v-7.49h6.98c.18,0,.45.03.56-.04.17-.05.29-.35.16-.51ZM15.49,15.48h-6.98v-6.98h6.98v6.98Z" style="fill-rule:evenodd;"/></svg>