<svg width="50" height="50" viewBox="0 0 50 50" fill="none" xmlns="http://www.w3.org/2000/svg">
<path d="M25 50C21.5417 50 18.2917 49.3438 15.25 48.0312C12.2083 46.7188 9.5625 44.9375 7.3125 42.6875C5.0625 40.4375 3.28125 37.7917 1.96875 34.75C0.65625 31.7083 0 28.4583 0 25C0 21.5417 0.65625 18.2917 1.96875 15.25C3.28125 12.2083 5.0625 9.5625 7.3125 7.3125C9.5625 5.0625 12.2083 3.28125 15.25 1.96875C18.2917 0.65625 21.5417 0 25 0C28.4583 0 31.7083 0.65625 34.75 1.96875C37.7917 3.28125 40.4375 5.0625 42.6875 7.3125C44.9375 9.5625 46.7188 12.2083 48.0312 15.25C49.3438 18.2917 50 21.5417 50 25C50 28.4583 49.3438 31.7083 48.0312 34.75C46.7188 37.7917 44.9375 40.4375 42.6875 42.6875C40.4375 44.9375 37.7917 46.7188 34.75 48.0312C31.7083 49.3438 28.4583 50 25 50ZM25 45C30.5833 45 35.3125 43.0625 39.1875 39.1875C43.0625 35.3125 45 30.5833 45 25C45 19.4167 43.0625 14.6875 39.1875 10.8125C35.3125 6.9375 30.5833 5 25 5C19.4167 5 14.6875 6.9375 10.8125 10.8125C6.9375 14.6875 5 19.4167 5 25C5 30.5833 6.9375 35.3125 10.8125 39.1875C14.6875 43.0625 19.4167 45 25 45Z" fill="#1D1B20"/>
<path d="M25.6 33.1C24.5625 33.1 23.5875 32.9031 22.675 32.5094C21.7625 32.1156 20.9688 31.5813 20.2938 30.9063C19.6188 30.2313 19.0844 29.4375 18.6906 28.525C18.2969 27.6125 18.1 26.6375 18.1 25.6C18.1 24.5625 18.2969 23.5875 18.6906 22.675C19.0844 21.7625 19.6188 20.9688 20.2938 20.2938C20.9688 19.6188 21.7625 19.0844 22.675 18.6906C23.5875 18.2969 24.5625 18.1 25.6 18.1C26.6375 18.1 27.6125 18.2969 28.525 18.6906C29.4375 19.0844 30.2313 19.6188 30.9063 20.2938C31.5813 20.9688 32.1156 21.7625 32.5094 22.675C32.9031 23.5875 33.1 24.5625 33.1 25.6C33.1 26.6375 32.9031 27.6125 32.5094 28.525C32.1156 29.4375 31.5813 30.2313 30.9063 30.9063C30.2313 31.5813 29.4375 32.1156 28.525 32.5094C27.6125 32.9031 26.6375 33.1 25.6 33.1ZM25.6 31.6C27.275 31.6 28.6938 31.0188 29.8563 29.8563C31.0188 28.6938 31.6 27.275 31.6 25.6C31.6 23.925 31.0188 22.5063 29.8563 21.3438C28.6938 20.1813 27.275 19.6 25.6 19.6C23.925 19.6 22.5063 20.1813 21.3438 21.3438C20.1813 22.5063 19.6 23.925 19.6 25.6C19.6 27.275 20.1813 28.6938 21.3438 29.8563C22.5063 31.0188 23.925 31.6 25.6 31.6Z" fill="#1D1B20"/>
</svg>
