<?xml version="1.0" encoding="UTF-8"?>
<svg id="Layer_1" xmlns="http://www.w3.org/2000/svg" version="1.1" viewBox="0 0 129 113">
  <!-- Generator: Adobe Illustrator 29.2.1, SVG Export Plug-In . SVG Version: 2.1.0 Build 116)  -->
  <path d="M12.2-9.2V122.8H-10.6V-9.2H12.2ZM79.1,122.8h-28.3l.2-18h28.1c8.2,0,15-1.8,20.5-5.3,5.6-3.6,9.8-8.7,12.5-15.3,2.8-6.6,4.3-14.6,4.3-23.8v-7.2c0-7.1-.8-13.4-2.5-18.9-1.6-5.5-3.9-10.1-7.1-13.9-3.1-3.7-6.9-6.6-11.5-8.5-4.5-1.9-9.7-2.9-15.5-2.9h-29.6V-9.2h29.6c8.8,0,16.8,1.5,24.1,4.4,7.3,2.9,13.5,7.1,18.8,12.6,5.3,5.5,9.4,12.1,12.3,19.8,2.8,7.7,4.3,16.3,4.3,25.7v7c0,9.5-1.4,18.1-4.3,25.7s-6.9,14.3-12.3,19.8c-5.3,5.4-11.7,9.6-19.1,12.6-7.3,2.9-15.5,4.4-24.6,4.4ZM63.5-9.2V122.8h-22.8V-9.2h22.8Z"/>
</svg>