<svg width="48" height="42" viewBox="0 0 48 42" fill="none" xmlns="http://www.w3.org/2000/svg">
<path d="M7.57207 0.765625V42H0.463669V0.765625H7.57207ZM28.4875 42H19.6799L19.7365 36.3643H28.4875C31.0363 36.3643 33.1698 35.8073 34.8879 34.6934C36.6249 33.5794 37.9276 31.984 38.7961 29.9072C39.6835 27.8304 40.1271 25.3571 40.1271 22.4873V20.25C40.1271 18.0221 39.8723 16.0492 39.3625 14.3311C38.8716 12.613 38.1353 11.1686 37.1535 9.99805C36.1906 8.82747 35.0012 7.9401 33.5852 7.33594C32.188 6.73177 30.5738 6.42969 28.7424 6.42969H19.51V0.765625H28.7424C31.48 0.765625 33.9816 1.22819 36.2473 2.15332C38.5129 3.05957 40.467 4.37174 42.1096 6.08984C43.771 7.80794 45.0454 9.86589 45.9328 12.2637C46.8202 14.6615 47.2639 17.3424 47.2639 20.3066V22.4873C47.2639 25.4515 46.8202 28.1325 45.9328 30.5303C45.0454 32.9281 43.771 34.986 42.1096 36.7041C40.4481 38.4033 38.4657 39.7155 36.1623 40.6406C33.8778 41.5469 31.3195 42 28.4875 42ZM23.6164 0.765625V42H16.508V0.765625H23.6164Z" fill="black"/>
</svg>
