<?xml version="1.0" encoding="UTF-8"?><svg id="a" xmlns="http://www.w3.org/2000/svg" viewBox="0 0 24 24"><path d="M3.65,0v24H0V0h3.65ZM14.36,24h-4.52l.03-3.28h4.49c1.31,0,2.4-.32,3.29-.97.89-.65,1.56-1.58,2.01-2.79.46-1.21.68-2.65.68-4.32v-1.3c0-1.3-.13-2.45-.39-3.45-.25-1-.63-1.84-1.13-2.52-.49-.68-1.11-1.2-1.83-1.55-.72-.35-1.55-.53-2.49-.53h-4.74V0h4.74c1.41,0,2.69.27,3.85.81,1.16.53,2.17,1.29,3.01,2.29.85,1,1.51,2.2,1.96,3.59s.68,2.96.68,4.68v1.27c0,1.73-.23,3.29-.68,4.68s-1.11,2.59-1.96,3.59c-.85.99-1.87,1.75-3.05,2.29-1.17.53-2.49.79-3.94.79ZM11.86,0v24h-3.65V0h3.65Z"/></svg>