<?xml version="1.0" encoding="UTF-8"?><svg id="a" xmlns="http://www.w3.org/2000/svg" viewBox="0 0 24 24"><path d="M1.72,1.92h3.84v20.16H1.72V1.92Z" style="fill:#020202; fill-rule:evenodd;"/><path d="M22.05,8.25c-.16-.75-.63-2.4-2.3-3.98-1.54-1.46-3.31-2.14-4.21-2.43h-7.13v20.26c1.16.1,2.84.14,4.78-.24,3.35-.65,5.52-2.15,6.49-2.92.82-.95,2.16-2.75,2.69-5.26.5-2.39.05-4.34-.32-5.44h0ZM18.95,13c-.27,1.53-.95,2.63-1.37,3.21-.49.47-1.6,1.39-3.31,1.78-.99.23-1.85.21-2.44.15V5.76h3.64c.46.18,1.36.59,2.15,1.48.85.97,1.09,1.98,1.17,2.44.19.67.42,1.86.16,3.32Z" style="fill:#020202; fill-rule:evenodd;"/><path d="M0,0v24h24V0H0ZM23.52,23.49H.48V.45h23.04s0,23.04,0,23.04Z" style="fill:none; fill-rule:evenodd;"/></svg>