<svg width="50" height="67" viewBox="0 0 50 67" fill="none" xmlns="http://www.w3.org/2000/svg">
<path d="M25 67C21.5417 67 18.2917 66.3438 15.25 65.0312C12.2083 63.7188 9.5625 61.9375 7.3125 59.6875C5.0625 57.4375 3.28125 54.7917 1.96875 51.75C0.65625 48.7083 0 45.4583 0 42C0 38.5417 0.65625 35.2917 1.96875 32.25C3.28125 29.2083 5.0625 26.5625 7.3125 24.3125C9.5625 22.0625 12.2083 20.2812 15.25 18.9688C18.2917 17.6562 21.5417 17 25 17C28.4583 17 31.7083 17.6562 34.75 18.9688C37.7917 20.2812 40.4375 22.0625 42.6875 24.3125C44.9375 26.5625 46.7188 29.2083 48.0312 32.25C49.3438 35.2917 50 38.5417 50 42C50 45.4583 49.3438 48.7083 48.0312 51.75C46.7188 54.7917 44.9375 57.4375 42.6875 59.6875C40.4375 61.9375 37.7917 63.7188 34.75 65.0312C31.7083 66.3438 28.4583 67 25 67ZM25 62C30.5833 62 35.3125 60.0625 39.1875 56.1875C43.0625 52.3125 45 47.5833 45 42C45 36.4167 43.0625 31.6875 39.1875 27.8125C35.3125 23.9375 30.5833 22 25 22C19.4167 22 14.6875 23.9375 10.8125 27.8125C6.9375 31.6875 5 36.4167 5 42C5 47.5833 6.9375 52.3125 10.8125 56.1875C14.6875 60.0625 19.4167 62 25 62Z" fill="#1D1B20"/>
<path d="M16.6 0H33.4L25 13.2L16.6 0Z" fill="#1D1B20"/>
</svg>
