<?xml version="1.0" encoding="UTF-8"?><svg id="a" xmlns="http://www.w3.org/2000/svg" viewBox="0 0 24 24"><path d="M7.41,1.65h8.22c0,.14-2.65,3.86-3.65,5.6L7.41,1.65Z" style="fill:#0f0f0f; fill-rule:evenodd;"/><path d="M12,8.04c-3.85,0-6.98,3.12-6.98,6.98s3.12,6.98,6.98,6.98,6.98-3.12,6.98-6.98-3.12-6.98-6.98-6.98h0ZM12,20.92c-3.26,0-5.9-2.64-5.9-5.9s2.64-5.9,5.9-5.9,5.9,2.64,5.9,5.9-2.64,5.9-5.9,5.9Z" style="fill:#0f0f0f; fill-rule:evenodd;"/><path d="M0,0v24h24V0H0ZM23.55,23.64H.35V.44h23.2v23.2Z" style="fill:none;"/></svg>